<?xml version="1.0" encoding="UTF-8"?>
<svg version="1.1" viewBox="0 0 2000 2000" width="1280" height="1280" xmlns="http://www.w3.org/2000/svg">
<path transform="translate(0)" d="m0 0h2e3v2e3h-2e3z" fill="#282928"/>
<path transform="translate(359,690)" d="m0 0h29l17 3 16 6 11 6 13 10 3 2 15-12 15-8 17-5 11-2h28l19 3 21 6 16 8 10 6 10 8 11 11 10 14 8 16 6 20 3 21v149h-111l-1-131-3-10-4-5-8-3-8 1-5 3-5 9-1 12v121l-1 3h-108l-1-132-3-9-5-6-7-2-7 1-6 4-4 7-1 5-1 131-1 1h-111v-137l2-25 5-21 6-15 8-14 8-10 6-7 14-11 13-8 15-6 17-5z" fill="#E7E4E0"/>
<path transform="translate(525,1024)" d="m0 0h22l14 2 17 5 17 9 11 9 4 2 10-9 15-9 14-5 12-3 9-1h20l18 2 20 5 21 9 14 9 12 11 7 7 10 15 7 15 6 19 2 11 1 13v143l-5 1h-105l-1-1-1-133-4-8-5-4-2-1h-11l-4 3h-2l-2 4-2 5-1 7v119l-1 9h-107l-1-130-3-10-5-5-3-2h-11l-6 4-4 7-1 5-1 131h-110l-1-1v-140l2-19 3-15 5-15 8-16 8-11 11-12 14-11 15-8 16-6 22-5z" fill="#E7E4E0"/>
<path transform="translate(1471,697)" d="m0 0h117l3 2 9 26 18 48 21 57 9 24v2h6l-15-41 2-9 12-36 20-59 5-13 1-1h119l-1 5-14 34-15 37-80 195-17 41-3 6h-112l1-6 12-30 8-21 2-5-8-16-12-28-17-40-19-45-18-43-34-80z" fill="#E7E4E0"/>
<path transform="translate(775,690)" d="m0 0h32l21 4 21 8 16 9 16 13 7 6 9 11 7 9 7 11 8 19 5 19 2 13v25l-3 18-5 16-5 12-7 13-9 12-9 11-8 7-14 11-14 8-16 7-18 5-13 2h-29l-20-4-20-7-17-9-16-13-10-9-9-11-9-13-8-16-5-13-4-17-1-6-1-21 2-19 5-19 6-15 8-15 11-14 11-12 13-11 14-9 14-7 15-5z" fill="#E7E4E0"/>
<path transform="translate(1057,688)" d="m0 0h13l20 2 20 5 21 9 15 10 11 9 7 7 10 13 9 16 6 16 5 23 1 9v144l-1 1h-110l-1-10v-119l-2-10-4-7-6-4-9-1-8 3-6 7-2 5-1 135-1 1h-111v-146l4-23 7-21 9-17 10-13 15-15 13-9 19-10 19-6 15-3z" fill="#E7E4E0"/>
<path transform="translate(1321,690)" d="m0 0h36l27 4 21 7 15 8 12 9 10 10 9 13 6 13 4 17 1 7v15l-3 17-6 14-5 7-7 6-91 1 2-4 6-7 2-6-1-10-5-8-10-5-11-1-9 3-7 6-3 5-1 4v10l5 10 5 4 8 3 132 1 1 4-1 104-1 1h-135l-17-2-15-4-16-6-16-9-17-14-8-8-9-11-9-14-8-17-5-17-2-10-1-10v-22l3-19 5-17 6-14 8-13 11-14 7-7 14-11 11-7 17-8 17-5z" fill="#E7E4E0"/>
<path transform="translate(1419,1024)" d="m0 0h24l19 3 16 5 21 10 13 10 11 9 13 15 9 14 7 14 6 18 3 16 1 30v115l-3 1h-105l-1-7v-92l-1-36-3-7-4-5-8-4h-11l-8 4-6 7-2 7 1 10 5 8 5 4 6 2 20 1 1 1v50l-1 57h-21l-19-2-19-5-18-8-10-6-9-7-10-9-9-9-10-13-6-10-8-19-4-14-3-21v-15l2-15 5-20 8-18 8-13 9-11 10-11 11-9 10-7 15-8 21-7z" fill="#E7E4E0"/>
<path transform="translate(936,968)" d="m0 0h110l1 1v63l76-1 1 1-1 104h-76l1 41 2 1 73 1 1 1v98l-1 6h-70l-19-1-20-4-13-4-16-8-9-6-10-9-10-11-9-16-6-16-4-18-1-13z" fill="#E7E4E0"/>
<path transform="translate(1289,1031)" d="m0 0 5 2v104l-40 1-9 1-1 144-1 1h-109l-1-1v-130l1-23 4-19 6-15 8-15 8-10 9-10 16-12 16-8 15-5 13-3 8-1z" fill="#E7E4E0"/>
<path transform="translate(895,1031)" d="m0 0h31l1 1v251l-1 1h-109l-1-1v-251z" fill="#E7E4E0"/>
<path transform="translate(1125,1041)" d="m0 0 2 1 1 7-2 2h2l1 3v12l-2-1v16l1 7v9l1 3v2h2v2h2l1-3 5-4 5-14h2l6-12h2l2-4 7-4 4-4 5-1v-2l4-4h4v2l-13 10-9 10-9 14-8 17-5 19-1 6-1 23v130l1 4-2 1-3-3-2 3h-2v-2l-3-1v-105l-73-1-3-2v-41h76v-94z" fill="#1D1D1D"/>
<path transform="translate(1426,1132)" d="m0 0h11l8 4 5 6 3 7 1 40-1 96h107l-1 2-6 3-3 1-26 1-23-1-2-1v2h-2l-1-1v1h-5l-5-2-30-3h-5l-1 2v-3l-10 1h-15l-22-3-1 2-9-3-9-1-7-3-7-2v-2l-4-1-4-2v-2l-7-2-5-4v-2l-4-1v-2l-4-1-4-4v-2l-4-2-5-6-3-1-1-4-5-4-1-3-2-2-1-4-2-3v-3h-2l-1-5h-2l-3-8-2-8-1-5-2-9v-8h2l9 27 8 16 7 10 9 11 12 12 13 10 17 9 16 6 20 4 33 2v-107l-20-1-9-4-6-7-3-9 1-10 4-6 7-6z" fill="#1C1C1D"/>
<path transform="translate(935,965)" d="m0 0h1l1 213 2 19 4 16 7 16 8 13 11 12 8 7 13 8 16 7 21 5 7 1 19 1 2 1 59 1-3 2-13 3h-11l-3 1-7-1h-20l-12-2-5-1-9-1-7-2-13-1-1-1-10-1-7-3-3-1-2-2-6-2v-2l-4-1-4-2v-2l-4-1-2-4-4-2-8-9-5-9-2-6-4-4-1-5-2-5v-2l-2-1v-2h-2v-2h-6l-2 12v8l2 5v3l-1 2 1 16 1 12-2 4h-2l1 4h-2v-249l-4-1 4-4h2v-30-3l-1-1 1-2-1-3 3-8v-4l-1 3-3 1 2-5 3-4z" fill="#1C1C1D"/>
<path transform="translate(813,1038)" d="m0 0h2l1 69 1 176 108 1v2l-11 4-10 1-58 1-4-2-5 1-4 1 1-2-2 1h-6l-4-2-6-1-2 1-10-2v-3l4-1-1-143-2-19-5-19-7-16-7-12-8-10-11-11-9-7 3-1 4 2v2l4 1v3l4 1 6 7 6 5 8 14v2l3 1 3 7 3 8 2 1 2 8 4 1h2l-1-44v-13h2z" fill="#1D1D1E"/>
<path transform="translate(923,792)" d="m0 0 7 3 3 2 1-3v12h-2v147h110l1 9 3 1-1 2h3v3h-107l-4-2 2-2-2-5-5-1-2-10-2-3-2-5v-2l1-3 1 1v-5l-2-1v-8l1-2h2v-2h-2v-5-3l1-2v-24l-1-12-1-4h-6l1-9 3-14 1-8v-25l-2-13z" fill="#1B1B1C"/>
<path transform="translate(1124,1141)" d="m0 0h1l1 5v27l-2 4-5-2-1 2 6 1-1 2-73-1v-1l31-1h-22v-2l-5-2-2-3-1-10v-7l4-6 6-4h43l18-1z" fill="#282928"/>
<path transform="translate(1333,796)" d="m0 0 11 1 10 5 6 9 1 10-3 7-8 10 4-1h87l-4 3v-2l-2 1h-68l1 1 8 1 1 2h-46l-10-4-6-7-3-7v-10l3-7 7-8 6-3z" fill="#282928"/>
<path transform="translate(503,1025)" d="m0 0h6l-1 2-20 5-19 8-13 8-13 11-9 10-9 14-8 19-4 15-2 13-2 20-1 134-1-3-3-1-3-15v-126l3-23 4-10 4-12 4-10h2l1-5h2l1-5 5-7 6-5 5-5 5-2 5-6 4-2 4-3h3v-2l6-3 5-3 10-4 14-5z" fill="#1B1B1C"/>
<path transform="translate(786,802)" d="m0 0h11l8 4 7 8 2 6v9l-3 7-6 7-8 4h-11l-8-4-5-5-3-5-2-10 3-10 6-7 5-3z" fill="#282928"/>
<path transform="translate(284,717)" d="m0 0 2 1-2 4-5 5-9 10-9 15-6 14-5 19-2 14-1 1-1 13-1 131-4-4-2-15v-10l-1-16v-87l1-10 2-16 3-10 5-15 8-17 6-9 4-4h2l2-6 3-2h5v-3l5-1z" fill="#1B1B1C"/>
<path transform="translate(1474,710)" d="m0 0h2l11 26 16 38 38 90 14 33 19 45 6 11-2 5-5 13-2 1v-21l-2-7-1-8-6-9-2-6-6-12-4-10-2-6-3-5v-3h-2l-2-7-4-9-4-8v-3h-2l-3-10-7-15v-3h-2l-2-10h-2l-4-10-5-11-6-15-2-2-5-14-3-7-2-7-3-7v-3h-2l-2-8-5-10-3-9z" fill="#1D1D1D"/>
<path transform="translate(1796,702)" d="m0 0 3 1-2 10-2 7-4 10v2h-2l-1 6-2 5-3 9h-2v4h-2v5h-2l-1 5-1 6h-2l-1 6-1 2h-2l-1 4-5 14-4 8-6 15-3 7h-2l-2 9-4 9-15 36-4 10h-2l-1 7-16 40-5 14-6 13-4 11-3 7h-2l-2 9-3 6-3 1 1-8 15-36 15-37 17-41 15-37 17-41 15-37 14-34z" fill="#1D1D1E"/>
<path transform="translate(1213,872)" d="m0 0h2l10 19 10 13 12 13 16 13 16 9 19 7 18 4 15 2 127 1-4 2-6 2-33 1h-17l-2 1h-39l-21-2-10-2 2 3-4-2v-2l-15-2-12-2-1-2-10-2-6-3h-5l-2-3-6-1v-2l-8-2v-2h-2v-2l-5-2-13-11v-2l-5-2v-2l-4-2-4-6v-2l-3-1-6-16-3-4-2-7z" fill="#1B1B1C"/>
<path transform="translate(532,1136)" d="m0 0h11l7 5 4 8v133h-1l-1-8-3-3-1-14v-74l1-14-1-8-3-9-6-5-10 1v2h-2v2h-3v2h-2v6h-1v-12l5-8z" fill="#1B1B1C"/>
<path transform="translate(373,802)" d="m0 0 8 1 5 3 4 5 2 4v137h-1l-4-14-1-7v-87l1-8-2-13-4-8-10-2-5 3-3 3h-3v-7l6-7z" fill="#1B1B1C"/>
<path transform="translate(674,1136)" d="m0 0h11l6 4 4 5 1 2v133l-3-1-3-9v-61l1-11-1-2 1-10v-10l1-12-3-9-2-3v-3h-2v-2h-8l-7 2-4 4-2-2 1-7 5-5z" fill="#1B1B1C"/>
<path transform="translate(1062,800)" d="m0 0 9 1 8 6 4 9 1 7v119l-1 3h-2l-4-24v-56l2-10h1v-24l-3-12-7-8-5-2h-6l-8 5h-3l-1 6h-1v-7l4-6 6-5z" fill="#202020"/>
<path transform="translate(1427,1141)" d="m0 0 11 1 5 3 6 7v11l-1 7-5 1-2 2h-10l-7-3h-5l-2-4h-2l-3-5-1-3v-7l3-1 4-6 9-1z" fill="#282928"/>
<path transform="translate(1312,1098)" d="m0 0 1 3-6 17-4 18-1 10v29h-2v-2h-2l-4-11-2-12-4-5-29 1-2 1-9 1-3 1v-10l2-1h48l3-14 3-1 1-7 3-7 3-3z" fill="#1C1C1D"/>
<path transform="translate(1195,798)" d="m0 0h4v2l3 1 2 1 1 28 2 16 4 15v5l-2 1-2-6-2-1v-2l-6 1v9l-1 4v30l1 6v3l-1 8 1 9-1 2 3 1-1 2-1 1-1 5v3l-2 2v-111z" fill="#1B1B1C"/>
<path transform="translate(517,802)" d="m0 0 8 1 6 4 4 6 1 3v132l-2-4-2-2-1-32 1-32v-46l-3-13-7-7-8-1-5 2-2 4-4 1v-5l5-7 5-3z" fill="#1B1B1C"/>
<path transform="translate(1562,1140)" d="m0 0h2l1 3v10h2l2 9v6l-3-4v-2h-2l2 12v8l1 3 1 66v20l-2 3h-3l-2-18v-56z" fill="#1C1C1D"/>
<path transform="translate(407,1285)" d="m0 0h108l-2 4-12 3-21 1-40-1-3 1-3-1-12-1-4 1-1-2-6-1v-2h-4z" fill="#1B1B1C"/>
<path transform="translate(553,1285)" d="m0 0h106l-1 2-8 4-16 2h-34v1h-5-1l-1-2-27-1-10-4h-3z" fill="#1B1B1C"/>
<path transform="translate(798,1284)" d="m0 0h5v3h-3v2l-12 2-16 1v1l-8 1-2-2h-38l-5 1-9-1-3-2-7-3-1 2-3-4z" fill="#1B1B1C"/>
<path transform="translate(246,953)" d="m0 0h108l-1 2h-3v2l-10 2-62 1-3 1-7-2v2l-2-1h-3l-4-1-4-2-7-2-1 2v-2l-2-1z" fill="#1B1B1C"/>
<path transform="translate(1213,872)" d="m0 0h2l10 19 10 13 12 13 16 13 16 9 19 7 18 4-1 2-13-1-6-1v-2l-10-2-6-3h-5l-2-3-6-1v-2l-8-2v-2h-2v-2l-5-2-13-11v-2l-5-2v-2l-4-2-4-6v-2l-3-1-6-16-3-4-2-7z" fill="#1C1D1D"/>
<path transform="translate(668,881)" d="m0 0 3 3 8 14 11 14 10 11 14 11 10 7 17 8 15 5 13 3 6 2-3 2-18-4-6-2-1 2-8-5-8-1-7-4-1-2-8-2v-2h-3l-5-5-4-3v-2l-4-2-8-6-5-5-6-7-2-6h-2l-2-9-3-1v-7h-2z" fill="#1C1D1D"/>
<path transform="translate(1624,786)" d="m0 0 4 5 2 4 6 2h4l2-5 2-3h2l1-3-1 8-6 18 1 6 13 35v3h-6l-8-21-16-43z" fill="#1D1D1E"/>
<path transform="translate(906,897)" d="m0 0v3l-3 7-2 1v4l-4 1-5 10h-3v2l-5-1v3l-4 1-1 4h-3v3l-5 2v2l-7 1v3h-3v2l-5 2-6 3-15 5-7 2-7 3h-5l-6 3-12 1h-10l-7-1v-2l-4-1 27-1 1-1 17-3 17-5 21-10 14-10 12-11h2l2-4 8-9 5-7z" fill="#1E1E1E"/>
<path transform="translate(1462,1285)" d="m0 0h98l-1 2-6 3-3 1-26 1-23-1-2-1v2h-2l-1-1v1h-5l-5-2-20-2-4-1z" fill="#1B1B1C"/>
<path transform="translate(1137,1285)" d="m0 0h102l-3 3-5 2-10 1-40 1 3-2-19-1-4-1v2l3-1 4 2h-8v-3h-3v2l-14-1v-2l-7 2-1-2h2z" fill="#1B1B1C"/>
<path transform="translate(1556,1016)" d="m0 0h112v1h-5v2l-6 1-8 1h-11l-17 1h-24l-22-2h-9l-3 1v-2h-6z" fill="#1B1B1C"/>
<path transform="translate(1084,953)" d="m0 0h107l-4 2-3 1-2-1-1 2-28 1h-8l-3 1-8-1-9 1h-18l-5-1h-4l-10-2z" fill="#1B1B1C"/>
<path transform="translate(663,1183)" d="m0 0h1l3 17 2 24 1 28v19l-2 5-5 1z" fill="#1B1B1C"/>
<path transform="translate(659,791)" d="m0 0h1l-1 10-2 19 1 21 3 16v6l-1-2h-2l-3-6-1-4-4-5-1-30-1-20 8 2z" fill="#1C1C1D"/>
<path transform="translate(1081,851)" d="m0 0 2 1v66l1 24-1 3h-2l-4-24v-56l2-10z" fill="#1B1B1C"/>
<path transform="translate(393,953)" d="m0 0h104v1l-7 1-6 2-26 1h-26l2 2h-9l2-2h-20l-7-1-4-2-2 2z" fill="#1B1B1C"/>
<path transform="translate(1671,705)" d="m0 0h4l-1 6-13 38-7 21h-2v-2h-2v-7l2-6 2-7 3-10 3-8 3-10 7-14z" fill="#1C1C1D"/>
<path transform="translate(1333,796)" d="m0 0 11 1 10 5 6 9 1 10-3 7-4-1-1-2v-6l1-1v-5l-8-7-3-1-1-5-11 1-3 4-5 1v2l-3 2v3l-3-2-3 10h-1v-10l6-8 5-4z" fill="#1C1D1D"/>
<path transform="translate(786,802)" d="m0 0h11l8 4 7 8 2 6v9l-3 7-6 7-3 2h-5l5-4-1-2 5-7h2v-11l-5-8-4-4-4-1v-2h-10l-4 5-4 4h-2v3l-2-1-1 1-2 3v-6l6-8 6-4z" fill="#1D1D1E"/>
<path transform="translate(542,953)" d="m0 0h100l-2 2-8 2h-81l-2-1-7-1z" fill="#1B1B1C"/>
<path transform="translate(521,1162)" d="m0 0 3 4v10l2 19h-2l-1-6v27l1 2 1 33 1 13-1 10-3 9h-1z" fill="#1B1B1C"/>
<path transform="translate(1472,1029)" d="m0 0h6l4 3 7 2v2l8 2 1 2 7 3v2l4 1 1 2 5 2v2l5 1 1 4 4 2v2l4 2v3l4 1 3 5 1 4 4 2 2 5h3l2 5 1 5 2 1 3 9 2 5-1 3v-2h-2l-7-16-9-14-11-13-6-7-17-13-10-6-17-8-4-2z" fill="#1E1E1E"/>
<path transform="translate(1449,828)" d="m0 0h2v3l-2 2v5l-3 2 3 2h-73l-8-1-2-3h71 4v-2l5-5h2z" fill="#1B1B1C"/>
<path transform="translate(1039,1284)" d="m0 0 75 1-3 2-13 3h-11l-3 1-7-1h-20l-12-2-5-1-3-1h2z" fill="#1B1B1C"/>
<path transform="translate(1465,854)" d="m0 0 2 1-1 4 1 4 1 1 1 9v56h-1l-1-39-1-16 1 64-1 4-2 3v-90z" fill="#1B1B1C"/>
<path transform="translate(359,880)" d="m0 0h1l1 5h1l3 26v28l-2 5-4-2z" fill="#1B1B1C"/>
<path transform="translate(1048,983)" d="m0 0 3 4 1 24 1 10 1 4h3l1 4 52 1v1h-62z" fill="#1B1B1C"/>
<path transform="translate(1383,693)" d="m0 0 8 1 5 2 9 2 1 2 5 1 3 3 5 1 2 1v3l5 1 3 2v2l4 1 4 4v2h3l1 4h3l1 5h2l6 9 1 3 2 2-1 4-3-3-6-10-8-10-8-8-15-10-15-7-16-5z" fill="#1E1E1F"/>
<path transform="translate(1245,1206)" d="m0 0h1l1 14h1l2 9 1 2v30l-2-4v-7l-2-14v19l1 3v18l-3 1z" fill="#1B1B1C"/>
<path transform="translate(1128,701)" d="m0 0 5 1 1 2h3v2l4 1 5 5 5 2v2l5 2 9 9v3l4 2 2 5h2v3h2l2 3v3l3 1 2 5 3 3-1 4h-2l-11-19-12-14-10-9-21-14z" fill="#1E1E1E"/>
<path transform="translate(1207,782)" d="m0 0h1v7l-3 19h-1l-1-5-2-1-2-4h-6l-1-7 2-4h10l1-3z" fill="#272828"/>
<path transform="translate(758,1045)" d="m0 0 5 1 2 1v2l4 1v3l4 1 6 7 6 5 8 14v2l3 1 3 7 1 1v5l-2 1-8-17-10-14-13-13-9-7z" fill="#1F1F1F"/>
<path transform="translate(503,1025)" d="m0 0h6l-1 2-20 5-19 8-13 8-13 11-2-1 1-3 5-4 1-2 4-2 4-3h3v-2l6-3 5-3 10-4 14-5z" fill="#1E1F1F"/>
<path transform="translate(1047,977)" d="m0 0 4 2 2 10-2 1-2-4-1 45h61v1h-62z" fill="#292A29"/>
<path transform="translate(812,957)" d="m0 0h7l-4 4-5 2-12 1h-10l-7-1v-2l-4-1 27-1 1-1z" fill="#1C1C1D"/>
<path transform="translate(1335,1061)" d="m0 0 3 1-2 5-9 10-8 12-2 1-1-3 3-1v-5l4-1v-2h-2l2-6 3-1 2-4h2l2-4h3z" fill="#1C1C1D"/>
<path transform="translate(503,877)" d="m0 0h1l2 18 1 3 1 21 1 7-2 2-1-7-3-3z" fill="#1B1B1C"/>
<path transform="translate(768,689)" d="m0 0h6v1l-26 7-19 8-10 6-3-1 14-9 21-8z" fill="#202021"/>
<path transform="translate(874,717)" d="m0 0 5 1v2l5 2 5 5v2l4 2v3h2v3l3 1 7 9-3 1-12-14-7-8-9-7z" fill="#1F1F1F"/>
<path transform="translate(588,704)" d="m0 0 12 6 1 3 5 1 3 3 2 1v2h2v2l4 2v2l4 2 5 9-4-2-9-10-10-9-11-7-4-3z" fill="#1F1F1F"/>
<path transform="translate(426,701)" d="m0 0 6 1 1 3 6 1 2 4 7-1 5 1h2l-2 4-6 4-9-8-12-8z" fill="#1D1D1E"/>
<path transform="translate(1308,690)" d="m0 0h6v2l-18 4-15 5-14 7-3-1 10-6 12-5 16-5z" fill="#1F2020"/>
<path transform="translate(1562,1140)" d="m0 0h2l1 3v10h2l2 9v6l-3-4v-2h-4z" fill="#1B1B1C"/>
<path transform="translate(972,719)" d="m0 0 2 1-2 4-10 10-4 6h-2l-1-3 3-3-2-1 3-3 5-6 7-2z" fill="#1D1E1E"/>
<path transform="translate(1765,692)" d="m0 0 14 1 7 2v1h-35v-2z" fill="#1B1B1C"/>
<path transform="translate(593,1038)" d="m0 0h3l1 2 5 2 1 2 7 1 6-2h2l-2 4-6 5-4-2-11-9-2-1z" fill="#1E1E1E"/>
<path transform="translate(339,691)" d="m0 0h6v2l-19 5-16 6-4-1 15-7z" fill="#1F1F1F"/>
<path transform="translate(1413,1283)" d="m0 0h13l20 1v2l-6 1h-15l-12-2z" fill="#1F2020"/>
<path transform="translate(1411,1161)" d="m0 0h2l2 2v3h2l2 3h5l7 3 2 4-9-1-7-4-5-6z" fill="#1E1F1F"/>
<path transform="translate(758,1045)" d="m0 0 5 1 2 1v2l4 1v3l4 1 6 7 6 5-1 3-8-7-9-9-9-7z" fill="#1E1E1F"/>
<path transform="translate(1169,736)" d="m0 0 4 1v3h2l2 3v3l3 1 2 5 3 3-1 4h-2l-11-19z" fill="#1F2020"/>
<path transform="translate(503,1025)" d="m0 0h6l-1 2-20 5-14 5 1-3 13-5z" fill="#1F2020"/>
<path transform="translate(841,949)" d="m0 0 3 1h-2l-1 3-6 2-7 2-7 3-3-2v-2l21-6z" fill="#202020"/>
<path transform="translate(1472,1029)" d="m0 0h6l4 3 7 2v2l8 2 3 3-1 2-23-11-4-2z" fill="#1F1F20"/>
<path transform="translate(1314,826)" d="m0 0 3 4 6 7h5l5 3 5 1v1h-11l-8-5-4-5z" fill="#1E1F1F"/>
<path transform="translate(1045,901)" d="m0 0 2 2 1 16v6h-1l-1 12h-1z" fill="#292A29"/>
<path transform="translate(1207,782)" d="m0 0h1v7l-1 5h-2l-1-2-5-1v-2l-6 2 1-4h10l1-3z" fill="#1E1E1F"/>
<path transform="translate(1246,1234)" d="m0 0 2 2 2 18-1 5-2-1-1-5z" fill="#292A29"/>
<path transform="translate(1012,695)" d="m0 0 1 3-19 9-6 4-3-1 3-1v-2l4-2h3v-2z" fill="#202020"/>
<path transform="translate(751,954)" d="m0 0 9 1 9 2 6 2-3 2-18-4-3-1z" fill="#1D1E1E"/>
<path transform="translate(1200,1039)" d="m0 0 1 3-16 8-4 1 1-2h2v-2l10-5z" fill="#1F2020"/>
<path transform="translate(914,879)" d="m0 0h2l-1 7-2 7-5 2 1-6z" fill="#1E1E1F"/>
<path transform="translate(490,691)" d="m0 0h6l-1 2-17 5-4 2-3-1 10-5z" fill="#1F2020"/>
<path transform="translate(302,705)" d="m0 0h3v2l-10 6-5 4h-3v-2l5-4h3l1-3z" fill="#1F1F20"/>
<path transform="translate(1352,1048)" d="m0 0h2l-2 4-9 7-3-1v-2l3-1 1-2h3v-2z" fill="#1E1E1E"/>
<path transform="translate(1028,1283)" d="m0 0h25v1h-14v2h-8z" fill="#212121"/>
<path transform="translate(856,705)" d="m0 0 5 1 2 2 5 2 5 4v2l-4-1-12-8z" fill="#1E1E1F"/>
<path transform="translate(692,729)" d="m0 0 2 1-2 4-8 10h-2l1-5 4-1v-5l4-1z" fill="#1F1F1F"/>
<path transform="translate(339,691)" d="m0 0h6v2l-16 4h-3v-2z" fill="#212122"/>
<path transform="translate(935,957)" d="m0 0 4 3 1 5-1 1 2 2h-5l-2-1 1-8-2-1z" fill="#292A29"/>
<path transform="translate(1556,1112)" d="m0 0 1 2 3 1 1 4-1 7h-2l-2-8z" fill="#1E1E1E"/>
<path transform="translate(426,701)" d="m0 0 6 1 1 3 6 1 1 5-11-7z" fill="#1F1F1F"/>
<path transform="translate(782,1068)" d="m0 0 5 2 5 7v5l-4-5z" fill="#202121"/>
<path transform="translate(1046,901)" d="m0 0 2 1 2 12v8l-2 3-1-13z" fill="#1B1B1C"/>
<path transform="translate(730,701)" d="m0 0h2l-1 3-12 7-3-1z" fill="#1E1F1F"/>
<path transform="translate(627,738)" d="m0 0h2l6 10-1 3-3-3-4-6z" fill="#1F1F20"/>
<path transform="translate(1300,948)" d="m0 0 10 1 6 1-1 2-13-1-2-1z" fill="#202020"/>
<path transform="translate(1646,786)" d="m0 0h1l-1 8-2 6-2-2v-6l2-3h2z" fill="#202121"/>
<path transform="translate(570,697)" d="m0 0 7 1 7 3 3 1v2l-6-1-11-5z" fill="#1E1E1F"/>
<path transform="translate(1724,883)" d="m0 0 2 2-3 7-3 1-2 2 1-5 2-5z" fill="#1E1E1F"/>
<path transform="translate(1560,1127)" d="m0 0 1 3 3 1v6l-4 1z" fill="#1E1F1F"/>
<path transform="translate(361,835)" d="m0 0 3 4 1 3h-2l-2 9-2 1v-8h2z" fill="#1B1B1C"/>
<path transform="translate(1327,837)" d="m0 0 6 3 5 1v1h-11l-3-2v-2z" fill="#1D1D1E"/>
<path transform="translate(822,955)" d="m0 0h6l-1 3-6 2-3-2v-2z" fill="#1E1E1F"/>
<path transform="translate(707,1025)" d="m0 0 11 1 5 2v1l-10-1-6-2z" fill="#1F1F20"/>
<path transform="translate(1308,690)" d="m0 0h6v2l-14 2v-2z" fill="#202121"/>
<path transform="translate(1323,1079)" d="m0 0 1 2-6 9-2-3 3-1v-5z" fill="#1E1E1E"/>
<path transform="translate(593,1038)" d="m0 0h3l1 2 5 2 2 5-7-4-4-3z" fill="#1F1F20"/>
<path transform="translate(907,893)" d="m0 0 2 2 3-1-1 4h-2l-1 2-2-2-2 1 2-5z" fill="#242424"/>
<path transform="translate(1193,787)" d="m0 0h10l1 5-5-1v-2l-6 2z" fill="#1B1B1C"/>
<path transform="translate(708,715)" d="m0 0h3l-2 4-5 4-3-1 4-4h2z" fill="#1F1F1F"/>
<path transform="translate(1372,1035)" d="m0 0 1 3-9 5-3-1 3-1v-2z" fill="#1F1F1F"/>
</svg>
